<svg xmlns="http://www.w3.org/2000/svg" xmlns:xlink="http://www.w3.org/1999/xlink" xmlns:lucid="lucid" width="1760" height="1360"><g transform="translate(0 0)" lucid:page-tab-id="0_0"><path d="M0 0h1760v1360H0z" fill="#fff"/><path d="M819.9 550h139.6M800.72 550h20m-20 10l20-10m-20-10l20 10M979.5 550h-20m0-10v20" stroke="#333" fill="none"/><path d="M480 245a5 5 0 0 1 5-5h310a5 5 0 0 1 5 5v316a5 5 0 0 1-5 5H485a5 5 0 0 1-5-5z" fill="#fff"/><path d="M480 280v31h320v-31" fill="#fff"/><path d="M480 310v33h320v-33" fill="#fff"/><path d="M480 342v33h320v-33" fill="#fff"/><path d="M480 374v33h320v-33" fill="#fff"/><path d="M480 406v33h320v-33" fill="#fff"/><path d="M480 438v33h320v-33" fill="#fff"/><path d="M480 470v33h320v-33" fill="#fff"/><path d="M480 502v33h320v-33" fill="#fff"/><path d="M480 534v27a5 5 0 0 0 5 5h310a5 5 0 0 0 5-5v-27" fill="#fff"/><path d="M480 280v-35a5 5 0 0 1 5-5h310a5 5 0 0 1 5 5v35" fill="#ccc"/><path d="M480 245a5 5 0 0 1 5-5h310a5 5 0 0 1 5 5v316a5 5 0 0 1-5 5H485a5 5 0 0 1-5-5zM480 280h320M540 280v286M670 280v286" stroke="#333" fill="none"/><use xlink:href="#a" transform="matrix(1,0,0,1,490,240) translate(0 26.089501953125)"/><use xlink:href="#b" transform="matrix(1,0,0,1,485,282.5) translate(14.03072265625 18.589501953125)"/><use xlink:href="#c" transform="matrix(1,0,0,1,545,282.5) translate(0 18.589501953125)"/><use xlink:href="#d" transform="matrix(1,0,0,1,675,282.5) translate(0 18.589501953125)"/><use xlink:href="#e" transform="matrix(1,0,0,1,675,282.5) translate(64.0501171875 18.589501953125)"/><use xlink:href="#f" transform="matrix(1,0,0,1,545,312.5) translate(0 19.589501953125)"/><use xlink:href="#g" transform="matrix(1,0,0,1,675,312.5) translate(0 19.589501953125)"/><use xlink:href="#h" transform="matrix(1,0,0,1,545,344.5) translate(0 19.589501953125)"/><use xlink:href="#i" transform="matrix(1,0,0,1,675,344.5) translate(0 19.589501953125)"/><use xlink:href="#j" transform="matrix(1,0,0,1,545,376.5) translate(0 19.589501953125)"/><use xlink:href="#k" transform="matrix(1,0,0,1,675,376.5) translate(0 19.589501953125)"/><use xlink:href="#l" transform="matrix(1,0,0,1,545,408.5) translate(0 19.589501953125)"/><use xlink:href="#m" transform="matrix(1,0,0,1,675,408.5) translate(0 19.589501953125)"/><use xlink:href="#n" transform="matrix(1,0,0,1,545,440.5) translate(0 19.589501953125)"/><use xlink:href="#i" transform="matrix(1,0,0,1,675,440.5) translate(0 19.589501953125)"/><use xlink:href="#o" transform="matrix(1,0,0,1,545,472.5) translate(0 19.589501953125)"/><use xlink:href="#g" transform="matrix(1,0,0,1,675,472.5) translate(0 19.589501953125)"/><use xlink:href="#p" transform="matrix(1,0,0,1,545,504.5) translate(0 19.589501953125)"/><use xlink:href="#q" transform="matrix(1,0,0,1,675,504.5) translate(0 19.589501953125)"/><use xlink:href="#r" transform="matrix(1,0,0,1,545,536.5) translate(0 19.589501953125)"/><path d="M980 405a5 5 0 0 1 5-5h270a5 5 0 0 1 5 5v156a5 5 0 0 1-5 5H985a5 5 0 0 1-5-5z" fill="#fff"/><path d="M980 440v31h280v-31" fill="#fff"/><path d="M980 470v33h280v-33" fill="#fff"/><path d="M980 502v33h280v-33" fill="#fff"/><path d="M980 534v27a5 5 0 0 0 5 5h270a5 5 0 0 0 5-5v-27" fill="#fff"/><path d="M980 440v-35a5 5 0 0 1 5-5h270a5 5 0 0 1 5 5v35" fill="#ccc"/><path d="M980 405a5 5 0 0 1 5-5h270a5 5 0 0 1 5 5v156a5 5 0 0 1-5 5H985a5 5 0 0 1-5-5zM980 440h280M1040 440v126M1150 440v126" stroke="#333" fill="none"/><use xlink:href="#s" transform="matrix(1,0,0,1,990,400) translate(0 26.089501953125)"/><use xlink:href="#b" transform="matrix(1,0,0,1,985,442.5) translate(14.03072265625 18.589501953125)"/><use xlink:href="#c" transform="matrix(1,0,0,1,1045,442.5) translate(0 18.589501953125)"/><use xlink:href="#t" transform="matrix(1,0,0,1,1155,442.5) translate(0 18.589501953125)"/><use xlink:href="#k" transform="matrix(1,0,0,1,1045,472.5) translate(0 19.589501953125)"/><use xlink:href="#k" transform="matrix(1,0,0,1,1155,472.5) translate(0 19.589501953125)"/><use xlink:href="#u" transform="matrix(1,0,0,1,1045,504.5) translate(0 19.589501953125)"/><use xlink:href="#v" transform="matrix(1,0,0,1,1155,504.5) translate(0 19.589501953125)"/><use xlink:href="#w" transform="matrix(1,0,0,1,1045,536.5) translate(0 19.589501953125)"/><path d="M960 721.1a5 5 0 0 1 5-5h310a5 5 0 0 1 5 5v124a5 5 0 0 1-5 5H965a5 5 0 0 1-5-5z" fill="#fff"/><path d="M960 756.1v31h320v-31" fill="#fff"/><path d="M960 786.1v33h320v-33" fill="#fff"/><path d="M960 818.1v27a5 5 0 0 0 5 5h310a5 5 0 0 0 5-5v-27" fill="#fff"/><path d="M960 756.1v-35a5 5 0 0 1 5-5h310a5 5 0 0 1 5 5v35" fill="#ccc"/><path d="M960 721.1a5 5 0 0 1 5-5h310a5 5 0 0 1 5 5v124a5 5 0 0 1-5 5H965a5 5 0 0 1-5-5zM960 756.1h320M1020 756.1v94M1150 756.1v94" stroke="#333" fill="none"/><use xlink:href="#x" transform="matrix(1,0,0,1,970,716.0999982962925) translate(0 26.089501953125)"/><use xlink:href="#b" transform="matrix(1,0,0,1,965,758.5999982962925) translate(14.03072265625 18.589501953125)"/><use xlink:href="#c" transform="matrix(1,0,0,1,1024.9999999999998,758.5999982962925) translate(0 18.589501953125)"/><use xlink:href="#t" transform="matrix(1,0,0,1,1155,758.5999982962925) translate(0 18.589501953125)"/><use xlink:href="#y" transform="matrix(1,0,0,1,1024.9999999999998,788.5999982962925) translate(0 19.589501953125)"/><use xlink:href="#z" transform="matrix(1,0,0,1,1155,788.5999982962925) translate(0 19.589501953125)"/><use xlink:href="#A" transform="matrix(1,0,0,1,1024.9999999999998,820.5999982962925) translate(0 19.589501953125)"/><path d="M453.15 76a8 8 0 0 1 8-8h836.75a8 8 0 0 1 8 8v25.16a8 8 0 0 1-8 8H461.15a8 8 0 0 1-8-8z" stroke="#000" stroke-opacity="0" stroke-width="2" fill="#fff" fill-opacity="0"/><use xlink:href="#B" transform="matrix(1,0,0,1,457.1465527853429,71.99999999994924) translate(214.77840820312503 28.429583333333333)"/><use xlink:href="#C" transform="matrix(1,0,0,1,457.1465527853429,71.99999999994924) translate(334.5088444010417 28.429583333333333)"/><use xlink:href="#D" transform="matrix(1,0,0,1,457.1465527853429,71.99999999994924) translate(371.1126595052084 28.429583333333333)"/><use xlink:href="#E" transform="matrix(1,0,0,1,457.1465527853429,71.99999999994924) translate(406.787685546875 28.429583333333333)"/><use xlink:href="#D" transform="matrix(1,0,0,1,457.1465527853429,71.99999999994924) translate(470.516904296875 28.429583333333333)"/><use xlink:href="#F" transform="matrix(1,0,0,1,457.1465527853429,71.99999999994924) translate(506.1919303385417 28.429583333333333)"/><use xlink:href="#G" transform="matrix(1,0,0,1,457.1465527853429,71.99999999994924) translate(578.8041829427084 28.429583333333333)"/><path d="M560.8 107.8h634.27M560.83 107.8h-1.03" stroke="#a9afb8" stroke-width="2" fill="none"/><path d="M1196.07 108.8h-1.02v-1.96h1.02z" stroke="#a9afb8" stroke-width=".05" fill="#a9afb8"/><path d="M453.15 117.16a8 8 0 0 1 8-8h837.7a8 8 0 0 1 8 8V120a8 8 0 0 1-8 8h-837.7a8 8 0 0 1-8-8z" stroke="#000" stroke-opacity="0" stroke-width="2" fill="#fff" fill-opacity="0"/><use xlink:href="#H" transform="matrix(1,0,0,1,457.1465527853434,113.15522395684805) translate(327.25553955078124 16.461006944444446)"/><use xlink:href="#I" transform="matrix(1,0,0,1,457.1465527853434,113.15522395684805) translate(377.6423461914062 16.461006944444446)"/><use xlink:href="#J" transform="matrix(1,0,0,1,457.1465527853434,113.15522395684805) translate(429.05022542317704 16.461006944444446)"/><use xlink:href="#K" transform="matrix(1,0,0,1,457.1465527853434,113.15522395684805) translate(441.7823754882812 16.461006944444446)"/><use xlink:href="#L" transform="matrix(1,0,0,1,457.1465527853434,113.15522395684805) translate(473.82460584852424 16.461006944444446)"/><use xlink:href="#M" transform="matrix(1,0,0,1,457.1465527853434,113.15522395684805) translate(490.3909876844618 16.461006944444446)"/><path d="M1280.5 550h28a12 12 0 0 1 12 12v260.08a12 12 0 0 1-12 12h-8M1260.5 550h20m0 10v-20M1280.5 834.08h20m0 10v-20" stroke="#333" fill="none"/><path d="M480 625a5 5 0 0 1 5-5h310a5 5 0 0 1 5 5v252a5 5 0 0 1-5 5H485a5 5 0 0 1-5-5z" fill="#fff"/><path d="M480 660v31h320v-31" fill="#fff"/><path d="M480 690v33h320v-33" fill="#fff"/><path d="M480 722v33h320v-33" fill="#fff"/><path d="M480 754v33h320v-33" fill="#fff"/><path d="M480 786v33h320v-33" fill="#fff"/><path d="M480 818v33h320v-33" fill="#fff"/><path d="M480 850v27a5 5 0 0 0 5 5h310a5 5 0 0 0 5-5v-27" fill="#fff"/><path d="M480 660v-35a5 5 0 0 1 5-5h310a5 5 0 0 1 5 5v35" fill="#ccc"/><path d="M480 625a5 5 0 0 1 5-5h310a5 5 0 0 1 5 5v252a5 5 0 0 1-5 5H485a5 5 0 0 1-5-5zM480 660h320M540 660v222M670 660v222" stroke="#333" fill="none"/><use xlink:href="#y" transform="matrix(1,0,0,1,490,620) translate(0 26.089501953125)"/><use xlink:href="#b" transform="matrix(1,0,0,1,485,662.5) translate(14.03072265625 18.589501953125)"/><use xlink:href="#c" transform="matrix(1,0,0,1,544.9999999999998,662.5) translate(0 18.589501953125)"/><use xlink:href="#t" transform="matrix(1,0,0,1,675,662.5) translate(0 18.589501953125)"/><use xlink:href="#f" transform="matrix(1,0,0,1,544.9999999999998,692.5) translate(0 19.589501953125)"/><use xlink:href="#i" transform="matrix(1,0,0,1,675,692.5) translate(0 19.589501953125)"/><use xlink:href="#N" transform="matrix(1,0,0,1,544.9999999999998,724.5) translate(0 19.589501953125)"/><use xlink:href="#i" transform="matrix(1,0,0,1,675,724.5) translate(0 19.589501953125)"/><use xlink:href="#O" transform="matrix(1,0,0,1,544.9999999999998,756.5) translate(0 19.589501953125)"/><use xlink:href="#v" transform="matrix(1,0,0,1,675,756.5) translate(0 19.589501953125)"/><use xlink:href="#P" transform="matrix(1,0,0,1,544.9999999999998,788.5) translate(0 19.589501953125)"/><use xlink:href="#Q" transform="matrix(1,0,0,1,544.9999999999998,820.5) translate(0 19.589501953125)"/><use xlink:href="#i" transform="matrix(1,0,0,1,675,820.5) translate(0 19.589501953125)"/><use xlink:href="#R" transform="matrix(1,0,0,1,544.9999999999998,852.5) translate(0 19.589501953125)"/><path d="M819.9 802.16h120.2M800.72 802.16h20m-20 10l20-10m-20-10l20 10M959.28 802.16h-20m20-10l-20 10m20 10l-20-10" stroke="#333" fill="none"/><path d="M480 985a5 5 0 0 1 5-5h310a5 5 0 0 1 5 5v92a5 5 0 0 1-5 5H485a5 5 0 0 1-5-5z" fill="#fff"/><path d="M480 1020v31h320v-31" fill="#fff"/><path d="M480 1050v27a5 5 0 0 0 5 5h310a5 5 0 0 0 5-5v-27" fill="#fff"/><path d="M480 1020v-35a5 5 0 0 1 5-5h310a5 5 0 0 1 5 5v35" fill="#ccc"/><path d="M480 985a5 5 0 0 1 5-5h310a5 5 0 0 1 5 5v92a5 5 0 0 1-5 5H485a5 5 0 0 1-5-5zM480 1020h320M540 1020v62M670 1020v62" stroke="#333" fill="none"/><g><use xlink:href="#S" transform="matrix(1,0,0,1,490,980) translate(0 26.089501953125)"/></g><g><use xlink:href="#b" transform="matrix(1,0,0,1,485,1022.5) translate(14.03072265625 18.589501953125)"/></g><g><use xlink:href="#c" transform="matrix(1,0,0,1,544.9999999999998,1022.5) translate(0 18.589501953125)"/></g><g><use xlink:href="#t" transform="matrix(1,0,0,1,675,1022.5) translate(0 18.589501953125)"/></g><g><use xlink:href="#f" transform="matrix(1,0,0,1,544.9999999999998,1052.5) translate(0 19.589501953125)"/></g><g><use xlink:href="#i" transform="matrix(1,0,0,1,675,1052.5) translate(0 19.589501953125)"/></g><path d="M819.9 1035h8.6a12 12 0 0 0 12-12V878.37a12 12 0 0 0-12-12h-8M800.72 1035h20m-20 10l20-10m-20-10l20 10M800.5 866.36h20m0 10v-20" stroke="#333" fill="none"/><defs><path fill="#333" d="M677 24c-359 0-556-231-505-538l162-976h190L363-516c-36 218 86 364 321 364 246 0 428-159 464-377l159-961h190l-163 989c-51 309-312 525-657 525" id="T"/><path fill="#333" d="M451 24C217 22 71-78 61-277l174-29c11 123 90 172 219 172 161 0 280-83 297-181 11-71-30-117-135-143l-179-44c-195-48-280-153-253-316 31-186 223-314 455-314 233 4 337 107 366 275l-165 30c-18-80-65-152-204-152-138 0-256 75-272 174-13 77 32 118 158 149l162 40c195 48 278 154 252 313C904-113 708 24 451 24" id="U"/><path fill="#333" d="M535 24C259 24 94-144 94-427c0-392 272-715 610-715 216 0 356 119 356 305 0 244-237 344-790 350-18 199 49 349 276 352 142 0 260-66 317-173l167 47C947-85 756 24 535 24zM294-623c447-4 586-57 586-218 0-85-78-141-194-141-220 0-342 177-392 359" id="V"/><path fill="#333" d="M66 0l185-1118h174l-28 172h12c78-136 219-209 411-185l-30 181c-211-47-398 67-428 250L246 0H66" id="W"/><g id="a"><use transform="matrix(0.008173828125000001,0,0,0.008173828125000001,0,0)" xlink:href="#T"/><use transform="matrix(0.008173828125000001,0,0,0.008173828125000001,12.448740234375002,0)" xlink:href="#U"/><use transform="matrix(0.008173828125000001,0,0,0.008173828125000001,21.276474609375,0)" xlink:href="#V"/><use transform="matrix(0.008173828125000001,0,0,0.008173828125000001,30.913417968750004,0)" xlink:href="#W"/><use transform="matrix(0.008173828125000001,0,0,0.008173828125000001,37.22361328125,0)" xlink:href="#U"/></g><path d="M180 0v-1490h510c348 0 508 209 508 474 0 266-160 477-507 477H370V0H180zm190-706h312c236 0 327-133 327-310 0-176-91-307-329-307H370v617" id="X"/><path d="M180 0v-1490h190c0 262 1 526-3 784 217-279 467-523 702-784h249L716-845 1319 0h-225L585-716 370-489V0H180" id="Y"/><g id="b"><use transform="matrix(0.008173828125000001,0,0,0.008173828125000001,0,0)" xlink:href="#X"/><use transform="matrix(0.008173828125000001,0,0,0.008173828125000001,10.691367187500001,0)" xlink:href="#Y"/></g><path fill="#333" d="M524-1490L277 0H87l247-1490h190" id="Z"/><path fill="#333" d="M585 0H87l247-1490h460c436 0 670 281 593 744C1309-277 1035 0 585 0zM305-168h262c366 0 577-221 636-580s-82-574-426-574H496" id="aa"/><g id="c"><use transform="matrix(0.008173828125000001,0,0,0.008173828125000001,0,0)" xlink:href="#Z"/><use transform="matrix(0.008173828125000001,0,0,0.008173828125000001,4.495605468750001,0)" xlink:href="#aa"/></g><path fill="#333" d="M356-664L245 0H65l186-1118h173l-32 197c96-152 219-211 366-211 232 0 366 145 319 428L960 0H779l117-701c29-174-48-269-198-269-165 0-310 115-342 306" id="ab"/><path fill="#333" d="M691-1118l-25 154H437L325-290c-17 103 16 144 108 144 23 0 63-6 94-12L538-6c-36 12-87 20-136 20-196 0-290-109-260-290l114-688H88l25-154h169l44-266h180l-44 266h229" id="ac"/><path fill="#333" d="M456 442C197 442 73 327 25 209l155-84c33 60 86 160 280 160 184 0 332-89 363-272l37-218-16 4C793-134 707-18 498-18 260-18 96-170 96-443c0-341 216-689 568-689 222 0 274 139 301 198l21-5 30-179h175L999 35c-48 288-275 407-543 407zm75-620c274 0 401-267 401-512 0-170-80-281-247-281-260 0-408 269-408 518 0 167 83 275 254 275" id="ad"/><path fill="#333" d="M-23 359l182-567h206L115 359H-23" id="ae"/><g id="d"><use transform="matrix(0.008173828125000001,0,0,0.008173828125000001,0,0)" xlink:href="#Z"/><use transform="matrix(0.008173828125000001,0,0,0.008173828125000001,4.495605468750001,0)" xlink:href="#ab"/><use transform="matrix(0.008173828125000001,0,0,0.008173828125000001,14.394111328125003,0)" xlink:href="#ac"/><use transform="matrix(0.008173828125000001,0,0,0.008173828125000001,19.723447265625005,0)" xlink:href="#V"/><use transform="matrix(0.008173828125000001,0,0,0.008173828125000001,29.360390625000008,0)" xlink:href="#ad"/><use transform="matrix(0.008173828125000001,0,0,0.008173828125000001,39.62671875000001,0)" xlink:href="#V"/><use transform="matrix(0.008173828125000001,0,0,0.008173828125000001,49.26366210937501,0)" xlink:href="#W"/><use transform="matrix(0.008173828125000001,0,0,0.008173828125000001,54.52760742187501,0)" xlink:href="#ae"/></g><g id="e"><use transform="matrix(0.008173828125000001,0,0,0.008173828125000001,0,0)" xlink:href="#T"/><use transform="matrix(0.008173828125000001,0,0,0.008173828125000001,12.448740234375002,0)" xlink:href="#T"/><use transform="matrix(0.008173828125000001,0,0,0.008173828125000001,24.897480468750004,0)" xlink:href="#Z"/><use transform="matrix(0.008173828125000001,0,0,0.008173828125000001,29.393085937500004,0)" xlink:href="#aa"/></g><path fill="#333" d="M87 0l247-1490h218l448 953c25 54 80 176 129 327 11-149 33-280 47-366l151-914h190L1270 0h-219C841-464 670-765 473-1275 414-753 352-475 278 0H87" id="af"/><path fill="#333" d="M481 24C202 24 45-202 104-557s293-575 571-575c216 0 263 132 291 193h15l29-179h181L1006 0H831l28-173h-21C788-107 693 24 481 24zm56-161c204 0 342-174 383-422s-41-412-245-412c-215 0-350 183-388 412-39 235 39 422 250 422" id="ag"/><path fill="#333" d="M65 0l186-1118h175l-31 195c80-148 212-215 337-215 153 0 236 96 255 228 75-143 223-228 382-228 199 0 341 131 298 390L1543 0h-181l126-756c27-162-65-218-177-218-160 0-274 111-297 250L894 0H714l128-773c21-127-57-201-174-201-136 0-277 97-307 277L245 0H65" id="ah"/><g id="f"><use transform="matrix(0.008173828125000001,0,0,0.008173828125000001,0,0)" xlink:href="#af"/><use transform="matrix(0.008173828125000001,0,0,0.008173828125000001,12.612216796875002,0)" xlink:href="#ag"/><use transform="matrix(0.008173828125000001,0,0,0.008173828125000001,22.886718750000004,0)" xlink:href="#ah"/><use transform="matrix(0.008173828125000001,0,0,0.008173828125000001,37.550566406250006,0)" xlink:href="#V"/></g><path fill="#333" d="M507 0L206-1490h200c85 478 172 817 237 1337 237-524 428-852 670-1337h202L726 0H507" id="ai"/><path fill="#333" d="M528 24C258 24 94-156 94-433c0-354 228-699 603-699 222 0 381 120 410 314l-176 39c-14-114-95-192-238-192-272 0-419 288-419 536 0 167 76 298 258 298 155 0 277-90 329-211l166 58C935-93 745 24 528 24" id="aj"/><path fill="#333" d="M356-670L245 0H65l247-1490h180l-94 565c97-150 219-207 362-207 226 0 365 139 318 422L960 0H779l116-695c29-174-53-275-208-275-158 0-299 107-331 300" id="ak"/><path fill="#333" d="M226-608c54-324 228-726 419-973h175c-209 318-363 684-411 972-44 264-11 530 103 888H337C213-15 178-320 226-608" id="al"/><path fill="#333" d="M530 20C268 20 99-148 127-376h184c-10 131 84 229 237 229 177 0 343-134 374-329s-78-332-260-332c-90 0-208 32-276 78l-174-22 211-738h784l-28 167H555L431-888h8c69-51 174-87 277-87 272 0 440 210 391 501-48 285-291 494-577 494" id="am"/><path fill="#333" d="M550 20C217 20 72-259 152-744s322-766 651-766c328 0 477 279 398 763-80 490-319 767-651 767zm27-166c220 0 379-223 441-601 61-372-21-598-242-598-214 0-377 214-441 602-62 376 24 597 242 597" id="an"/><path fill="#333" d="M-43 280C186-71 310-340 354-607c48-291 15-654-89-973h176c108 246 149 649 95 974-48 289-184 595-403 886H-43" id="ao"/><g id="g"><use transform="matrix(0.008173828125000001,0,0,0.008173828125000001,0,0)" xlink:href="#ai"/><use transform="matrix(0.008173828125000001,0,0,0.008173828125000001,10.699541015625002,0)" xlink:href="#ag"/><use transform="matrix(0.008173828125000001,0,0,0.008173828125000001,20.974042968750005,0)" xlink:href="#W"/><use transform="matrix(0.008173828125000001,0,0,0.008173828125000001,27.006328125000003,0)" xlink:href="#aj"/><use transform="matrix(0.008173828125000001,0,0,0.008173828125000001,36.577880859375,0)" xlink:href="#ak"/><use transform="matrix(0.008173828125000001,0,0,0.008173828125000001,46.47638671875,0)" xlink:href="#ag"/><use transform="matrix(0.008173828125000001,0,0,0.008173828125000001,56.750888671875,0)" xlink:href="#W"/><use transform="matrix(0.008173828125000001,0,0,0.008173828125000001,63.061083984375,0)" xlink:href="#al"/><use transform="matrix(0.008173828125000001,0,0,0.008173828125000001,69.16693359375,0)" xlink:href="#am"/><use transform="matrix(0.008173828125000001,0,0,0.008173828125000001,79.31882812500001,0)" xlink:href="#an"/><use transform="matrix(0.008173828125000001,0,0,0.008173828125000001,89.87124023437501,0)" xlink:href="#ao"/></g><path fill="#333" d="M87 0l247-1490h908l-28 167H496l-80 487h669l-28 167H387l-83 502h727L1004 0H87" id="ap"/><path fill="#333" d="M66 0l185-1118h180L246 0H66zm307-1301c-71 0-117-55-106-119s74-119 145-119c65 0 117 50 106 118s-78 120-145 120" id="aq"/><path fill="#333" d="M492-1490L245 0H65l247-1490h180" id="ar"/><g id="h"><use transform="matrix(0.008173828125000001,0,0,0.008173828125000001,0,0)" xlink:href="#ap"/><use transform="matrix(0.008173828125000001,0,0,0.008173828125000001,10.070156250000002,0)" xlink:href="#ah"/><use transform="matrix(0.008173828125000001,0,0,0.008173828125000001,24.734003906250003,0)" xlink:href="#ag"/><use transform="matrix(0.008173828125000001,0,0,0.008173828125000001,35.008505859375006,0)" xlink:href="#aq"/><use transform="matrix(0.008173828125000001,0,0,0.008173828125000001,39.070898437500006,0)" xlink:href="#ar"/></g><path fill="#333" d="M575 26C254 26 62-139 87-390h195c-13 168 129 246 305 246 202 0 370-106 400-265 38-202-254-238-427-293-212-68-349-179-316-387 40-252 276-421 566-421 289 0 487 168 458 396h-185c7-144-113-228-291-228-194 0-337 102-361 240-27 156 137 212 244 243l142 41c149 43 400 132 354 412-40 244-251 432-596 432" id="as"/><g id="i"><use transform="matrix(0.008173828125000001,0,0,0.008173828125000001,0,0)" xlink:href="#as"/><use transform="matrix(0.008173828125000001,0,0,0.008173828125000001,10.7240625,0)" xlink:href="#ac"/><use transform="matrix(0.008173828125000001,0,0,0.008173828125000001,16.216875,0)" xlink:href="#W"/><use transform="matrix(0.008173828125000001,0,0,0.008173828125000001,22.7886328125,0)" xlink:href="#aq"/><use transform="matrix(0.008173828125000001,0,0,0.008173828125000001,26.851025390625,0)" xlink:href="#ab"/><use transform="matrix(0.008173828125000001,0,0,0.008173828125000001,36.749531250000004,0)" xlink:href="#ad"/></g><path fill="#333" d="M87 0l247-1490h522c311 0 433 182 398 403-29 183-158 272-300 309v10c139 9 280 144 242 380C1160-164 988 0 639 0H87zm218-167h345c236 0 346-113 367-247 23-147-78-262-262-262H390zm111-669h323c157 0 307-105 334-265 21-124-42-222-237-222H497" id="at"/><path fill="#333" d="M492 24C248 24 94-147 94-425c0-352 212-707 569-707 222 0 274 136 303 198h12l92-556h181L1004 0H829l30-173h-19C792-103 700 24 492 24zm32-161c268 0 407-295 407-549 0-175-80-285-247-285-266 0-408 283-408 536 0 174 79 298 248 298" id="au"/><g id="j"><use transform="matrix(0.008173828125000001,0,0,0.008173828125000001,0,0)" xlink:href="#at"/><use transform="matrix(0.008173828125000001,0,0,0.008173828125000001,10.952929687500001,0)" xlink:href="#aq"/><use transform="matrix(0.008173828125000001,0,0,0.008173828125000001,15.015322265625002,0)" xlink:href="#W"/><use transform="matrix(0.008173828125000001,0,0,0.008173828125000001,21.587080078125002,0)" xlink:href="#ac"/><use transform="matrix(0.008173828125000001,0,0,0.008173828125000001,27.079892578124998,0)" xlink:href="#ak"/><use transform="matrix(0.008173828125000001,0,0,0.008173828125000001,36.978398437500005,0)" xlink:href="#au"/><use transform="matrix(0.008173828125000001,0,0,0.008173828125000001,47.236552734375,0)" xlink:href="#ag"/><use transform="matrix(0.008173828125000001,0,0,0.008173828125000001,57.51105468750001,0)" xlink:href="#ac"/><use transform="matrix(0.008173828125000001,0,0,0.008173828125000001,62.840390625000005,0)" xlink:href="#V"/></g><g id="k"><use transform="matrix(0.008173828125000001,0,0,0.008173828125000001,0,0)" xlink:href="#aa"/><use transform="matrix(0.008173828125000001,0,0,0.008173828125000001,12.072744140625002,0)" xlink:href="#ag"/><use transform="matrix(0.008173828125000001,0,0,0.008173828125000001,22.34724609375,0)" xlink:href="#ac"/><use transform="matrix(0.008173828125000001,0,0,0.008173828125000001,27.67658203125,0)" xlink:href="#V"/></g><g id="l"><use transform="matrix(0.008173828125000001,0,0,0.008173828125000001,0,0)" xlink:href="#aa"/><use transform="matrix(0.008173828125000001,0,0,0.008173828125000001,12.072744140625002,0)" xlink:href="#ab"/><use transform="matrix(0.008173828125000001,0,0,0.008173828125000001,21.971250000000005,0)" xlink:href="#aq"/></g><g id="m"><use transform="matrix(0.008173828125000001,0,0,0.008173828125000001,0,0)" xlink:href="#at"/><use transform="matrix(0.008173828125000001,0,0,0.008173828125000001,10.952929687500001,0)" xlink:href="#aq"/><use transform="matrix(0.008173828125000001,0,0,0.008173828125000001,15.015322265625002,0)" xlink:href="#ad"/><use transform="matrix(0.008173828125000001,0,0,0.008173828125000001,25.281650390625003,0)" xlink:href="#aq"/><use transform="matrix(0.008173828125000001,0,0,0.008173828125000001,29.344042968750003,0)" xlink:href="#ab"/><use transform="matrix(0.008173828125000001,0,0,0.008173828125000001,39.242548828125,0)" xlink:href="#ac"/></g><path fill="#333" d="M-41 0l788-1490h220L1268 0h-192l-80-416H383L169 0H-41zm509-582h497c-56-293-77-375-126-756-162 359-224 468-371 756" id="av"/><g id="n"><use transform="matrix(0.008173828125000001,0,0,0.008173828125000001,0,0)" xlink:href="#av"/><use transform="matrix(0.008173828125000001,0,0,0.008173828125000001,11.549619140625001,0)" xlink:href="#au"/><use transform="matrix(0.008173828125000001,0,0,0.008173828125000001,21.807773437500003,0)" xlink:href="#au"/><use transform="matrix(0.008173828125000001,0,0,0.008173828125000001,32.065927734375,0)" xlink:href="#W"/><use transform="matrix(0.008173828125000001,0,0,0.008173828125000001,38.098212890625,0)" xlink:href="#V"/><use transform="matrix(0.008173828125000001,0,0,0.008173828125000001,47.73515625,0)" xlink:href="#U"/><use transform="matrix(0.008173828125000001,0,0,0.008173828125000001,56.562890625,0)" xlink:href="#U"/></g><path fill="#333" d="M87 0l247-1490h510c346 0 473 206 430 472s-238 479-586 479H366L277 0H87zm307-706h312c241 0 351-138 379-311s-39-306-279-306H496" id="aw"/><path fill="#333" d="M317 0L163-1118h191c34 329 72 559 91 925 130-352 253-602 392-925h192c32 328 66 558 83 922 132-350 256-600 396-922h191L1175 0H996c-36-314-76-577-98-915C766-585 635-312 496 0H317" id="ax"/><path fill="#333" d="M528 24C258 24 94-156 94-433c0-355 229-699 603-699 270 0 436 178 436 458 0 359-234 698-605 698zm4-161c275 0 420-287 420-533 0-170-77-301-260-301-271 0-418 288-418 536 0 168 77 298 258 298" id="ay"/><g id="o"><use transform="matrix(0.008173828125000001,0,0,0.008173828125000001,0,0)" xlink:href="#aw"/><use transform="matrix(0.008173828125000001,0,0,0.008173828125000001,10.601455078125001,0)" xlink:href="#ag"/><use transform="matrix(0.008173828125000001,0,0,0.008173828125000001,20.875957031250003,0)" xlink:href="#U"/><use transform="matrix(0.008173828125000001,0,0,0.008173828125000001,29.703691406250005,0)" xlink:href="#U"/><use transform="matrix(0.008173828125000001,0,0,0.008173828125000001,38.53142578125,0)" xlink:href="#ax"/><use transform="matrix(0.008173828125000001,0,0,0.008173828125000001,51.928330078125,0)" xlink:href="#ay"/><use transform="matrix(0.008173828125000001,0,0,0.008173828125000001,61.97396484375001,0)" xlink:href="#W"/><use transform="matrix(0.008173828125000001,0,0,0.008173828125000001,68.00625000000001,0)" xlink:href="#au"/></g><g id="p"><use transform="matrix(0.008173828125000001,0,0,0.008173828125000001,0,0)" xlink:href="#aq"/><use transform="matrix(0.008173828125000001,0,0,0.008173828125000001,4.062392578125,0)" xlink:href="#U"/><use transform="matrix(0.008173828125000001,0,0,0.008173828125000001,12.890126953125002,0)" xlink:href="#av"/><use transform="matrix(0.008173828125000001,0,0,0.008173828125000001,24.439746093750003,0)" xlink:href="#au"/><use transform="matrix(0.008173828125000001,0,0,0.008173828125000001,34.697900390625,0)" xlink:href="#ah"/><use transform="matrix(0.008173828125000001,0,0,0.008173828125000001,49.36174804687501,0)" xlink:href="#aq"/><use transform="matrix(0.008173828125000001,0,0,0.008173828125000001,53.42414062500001,0)" xlink:href="#ab"/></g><g id="q"><use transform="matrix(0.008173828125000001,0,0,0.008173828125000001,0,0)" xlink:href="#at"/><use transform="matrix(0.008173828125000001,0,0,0.008173828125000001,10.952929687500001,0)" xlink:href="#ay"/><use transform="matrix(0.008173828125000001,0,0,0.008173828125000001,20.998564453125002,0)" xlink:href="#ay"/><use transform="matrix(0.008173828125000001,0,0,0.008173828125000001,31.044199218750002,0)" xlink:href="#ar"/><use transform="matrix(0.008173828125000001,0,0,0.008173828125000001,35.09841796875,0)" xlink:href="#V"/><use transform="matrix(0.008173828125000001,0,0,0.008173828125000001,44.735361328125,0)" xlink:href="#ag"/><use transform="matrix(0.008173828125000001,0,0,0.008173828125000001,55.009863281250006,0)" xlink:href="#ab"/></g><path fill="#333" d="M699 20c-338 0-560-226-560-600 0-472 307-930 791-930 337 0 558 226 558 599 0 474-306 931-789 931zm7-176c374 0 598-379 598-750 0-280-157-428-381-428-373 0-600 379-600 749 0 280 158 429 383 429" id="az"/><g id="r"><use transform="matrix(0.008173828125000001,0,0,0.008173828125000001,0,0)" xlink:href="#az"/><use transform="matrix(0.008173828125000001,0,0,0.008173828125000001,12.800214843750002,0)" xlink:href="#W"/><use transform="matrix(0.008173828125000001,0,0,0.008173828125000001,18.832500000000003,0)" xlink:href="#au"/><use transform="matrix(0.008173828125000001,0,0,0.008173828125000001,29.090654296875,0)" xlink:href="#V"/><use transform="matrix(0.008173828125000001,0,0,0.008173828125000001,38.727597656250005,0)" xlink:href="#W"/><use transform="matrix(0.008173828125000001,0,0,0.008173828125000001,45.037792968750004,0)" xlink:href="#U"/></g><g id="s"><use transform="matrix(0.008173828125000001,0,0,0.008173828125000001,0,0)" xlink:href="#az"/><use transform="matrix(0.008173828125000001,0,0,0.008173828125000001,12.800214843750002,0)" xlink:href="#W"/><use transform="matrix(0.008173828125000001,0,0,0.008173828125000001,18.832500000000003,0)" xlink:href="#au"/><use transform="matrix(0.008173828125000001,0,0,0.008173828125000001,29.090654296875,0)" xlink:href="#V"/><use transform="matrix(0.008173828125000001,0,0,0.008173828125000001,38.727597656250005,0)" xlink:href="#W"/></g><g id="t"><use transform="matrix(0.008173828125000001,0,0,0.008173828125000001,0,0)" xlink:href="#T"/><use transform="matrix(0.008173828125000001,0,0,0.008173828125000001,12.448740234375002,0)" xlink:href="#T"/><use transform="matrix(0.008173828125000001,0,0,0.008173828125000001,24.897480468750004,0)" xlink:href="#Z"/><use transform="matrix(0.008173828125000001,0,0,0.008173828125000001,29.393085937500004,0)" xlink:href="#aa"/></g><path fill="#333" d="M226-1323l28-167h1126l-28 167H885L666 0H476l219-1323H226" id="aA"/><g id="u"><use transform="matrix(0.008173828125000001,0,0,0.008173828125000001,0,0)" xlink:href="#aA"/><use transform="matrix(0.008173828125000001,0,0,0.008173828125000001,9.5143359375,0)" xlink:href="#ay"/><use transform="matrix(0.008173828125000001,0,0,0.008173828125000001,19.559970703125003,0)" xlink:href="#ac"/><use transform="matrix(0.008173828125000001,0,0,0.008173828125000001,24.889306640625,0)" xlink:href="#ag"/><use transform="matrix(0.008173828125000001,0,0,0.008173828125000001,35.163808593750005,0)" xlink:href="#ar"/></g><path fill="#333" d="M87 0l247-1490h901l-28 167H496l-85 512h643l-27 167H384L277 0H87" id="aB"/><g id="v"><use transform="matrix(0.008173828125000001,0,0,0.008173828125000001,0,0)" xlink:href="#aB"/><use transform="matrix(0.008173828125000001,0,0,0.008173828125000001,9.882158203125002,0)" xlink:href="#ar"/><use transform="matrix(0.008173828125000001,0,0,0.008173828125000001,13.936376953125002,0)" xlink:href="#ay"/><use transform="matrix(0.008173828125000001,0,0,0.008173828125000001,23.98201171875,0)" xlink:href="#ag"/><use transform="matrix(0.008173828125000001,0,0,0.008173828125000001,34.256513671875005,0)" xlink:href="#ac"/></g><path fill="#333" d="M841 0l-27 166h-934L-93 0h934" id="aC"/><g id="w"><use transform="matrix(0.008173828125000001,0,0,0.008173828125000001,0,0)" xlink:href="#T"/><use transform="matrix(0.008173828125000001,0,0,0.008173828125000001,12.448740234375002,0)" xlink:href="#U"/><use transform="matrix(0.008173828125000001,0,0,0.008173828125000001,21.276474609375,0)" xlink:href="#V"/><use transform="matrix(0.008173828125000001,0,0,0.008173828125000001,30.913417968750004,0)" xlink:href="#W"/><use transform="matrix(0.008173828125000001,0,0,0.008173828125000001,37.22361328125,0)" xlink:href="#aC"/><use transform="matrix(0.008173828125000001,0,0,0.008173828125000001,45.421962890625004,0)" xlink:href="#Z"/><use transform="matrix(0.008173828125000001,0,0,0.008173828125000001,49.917568359375004,0)" xlink:href="#aa"/></g><g id="x"><use transform="matrix(0.008173828125000001,0,0,0.008173828125000001,0,0)" xlink:href="#az"/><use transform="matrix(0.008173828125000001,0,0,0.008173828125000001,12.800214843750002,0)" xlink:href="#W"/><use transform="matrix(0.008173828125000001,0,0,0.008173828125000001,18.832500000000003,0)" xlink:href="#au"/><use transform="matrix(0.008173828125000001,0,0,0.008173828125000001,29.090654296875,0)" xlink:href="#V"/><use transform="matrix(0.008173828125000001,0,0,0.008173828125000001,38.727597656250005,0)" xlink:href="#W"/><use transform="matrix(0.008173828125000001,0,0,0.008173828125000001,45.29935546875,0)" xlink:href="#aa"/><use transform="matrix(0.008173828125000001,0,0,0.008173828125000001,57.372099609375,0)" xlink:href="#V"/><use transform="matrix(0.008173828125000001,0,0,0.008173828125000001,67.00904296875,0)" xlink:href="#ac"/><use transform="matrix(0.008173828125000001,0,0,0.008173828125000001,72.33837890625,0)" xlink:href="#ag"/><use transform="matrix(0.008173828125000001,0,0,0.008173828125000001,82.612880859375,0)" xlink:href="#aq"/><use transform="matrix(0.008173828125000001,0,0,0.008173828125000001,86.6752734375,0)" xlink:href="#ar"/></g><path fill="#333" d="M443 14C219 14 87-123 134-408l117-710h180L317-423c-28 171 49 275 206 275s300-105 332-300l110-670h181L961 0H787l35-209C722-47 590 14 443 14" id="aD"/><g id="y"><use transform="matrix(0.008173828125000001,0,0,0.008173828125000001,0,0)" xlink:href="#aw"/><use transform="matrix(0.008173828125000001,0,0,0.008173828125000001,10.691367187500001,0)" xlink:href="#W"/><use transform="matrix(0.008173828125000001,0,0,0.008173828125000001,16.72365234375,0)" xlink:href="#ay"/><use transform="matrix(0.008173828125000001,0,0,0.008173828125000001,26.769287109375,0)" xlink:href="#au"/><use transform="matrix(0.008173828125000001,0,0,0.008173828125000001,37.02744140625,0)" xlink:href="#aD"/><use transform="matrix(0.008173828125000001,0,0,0.008173828125000001,46.93412109375,0)" xlink:href="#aj"/><use transform="matrix(0.008173828125000001,0,0,0.008173828125000001,56.505673828125,0)" xlink:href="#ac"/><use transform="matrix(0.008173828125000001,0,0,0.008173828125000001,61.835009765624996,0)" xlink:href="#U"/></g><path fill="#333" d="M87 0l247-1490h510c351 0 476 196 432 460-33 197-146 351-346 417L1163 0H943L728-579c-116 2-237 0-355 1L277 0H87zm314-747h311c238 0 346-110 375-283 31-185-52-293-281-293H496" id="aE"/><path fill="#333" d="M698 20c-339 0-559-226-559-600 0-470 305-930 790-930 306 0 529 181 531 489h-190c-8-202-157-313-348-313-373 0-599 380-599 749 0 281 158 429 382 429 202 0 399-111 474-313h191C1267-166 997 20 698 20" id="aF"/><path fill="#333" d="M87 279l308-1860h398l-25 153H542L284 126h226l-25 153H87" id="aG"/><path fill="#333" d="M-15 279l25-153h226l258-1554H268l25-153h398L383 279H-15" id="aH"/><g id="z"><use transform="matrix(0.008173828125000001,0,0,0.008173828125000001,0,0)" xlink:href="#aw"/><use transform="matrix(0.008173828125000001,0,0,0.008173828125000001,10.691367187500001,0)" xlink:href="#aE"/><use transform="matrix(0.008173828125000001,0,0,0.008173828125000001,21.464472656250003,0)" xlink:href="#az"/><use transform="matrix(0.008173828125000001,0,0,0.008173828125000001,34.26468750000001,0)" xlink:href="#aa"/><use transform="matrix(0.008173828125000001,0,0,0.008173828125000001,46.33743164062501,0)" xlink:href="#T"/><use transform="matrix(0.008173828125000001,0,0,0.008173828125000001,58.786171875000015,0)" xlink:href="#aF"/><use transform="matrix(0.008173828125000001,0,0,0.008173828125000001,71.00604492187502,0)" xlink:href="#aA"/><use transform="matrix(0.008173828125000001,0,0,0.008173828125000001,81.82819335937502,0)" xlink:href="#as"/><use transform="matrix(0.008173828125000001,0,0,0.008173828125000001,92.55225585937502,0)" xlink:href="#aG"/><use transform="matrix(0.008173828125000001,0,0,0.008173828125000001,98.65810546875002,0)" xlink:href="#aH"/></g><g id="A"><use transform="matrix(0.008173828125000001,0,0,0.008173828125000001,0,0)" xlink:href="#az"/><use transform="matrix(0.008173828125000001,0,0,0.008173828125000001,12.800214843750002,0)" xlink:href="#W"/><use transform="matrix(0.008173828125000001,0,0,0.008173828125000001,18.832500000000003,0)" xlink:href="#au"/><use transform="matrix(0.008173828125000001,0,0,0.008173828125000001,29.090654296875,0)" xlink:href="#V"/><use transform="matrix(0.008173828125000001,0,0,0.008173828125000001,38.727597656250005,0)" xlink:href="#W"/><use transform="matrix(0.008173828125000001,0,0,0.008173828125000001,45.037792968750004,0)" xlink:href="#aC"/><use transform="matrix(0.008173828125000001,0,0,0.008173828125000001,53.236142578125005,0)" xlink:href="#Z"/><use transform="matrix(0.008173828125000001,0,0,0.008173828125000001,57.731748046875005,0)" xlink:href="#aa"/></g><path fill="#a9afb8" d="M659 0H135v-1490h529c448 0 721 280 721 744 0 466-273 746-726 746zM440-263h204c287 0 437-148 437-483 0-333-150-481-435-481H440v964" id="aI"/><path fill="#a9afb8" d="M128 0v-1118h300V0H128zm150-1264c-91 0-165-68-165-154 0-85 74-154 165-154 90 0 165 69 165 154 0 86-75 154-165 154" id="aJ"/><path fill="#a9afb8" d="M440 22C227 22 68-92 68-313c0-250 202-322 422-343 195-21 271-24 271-105 0-95-63-149-175-149-116 0-187 57-211 129l-275-46c57-194 237-305 487-305 240 0 474 108 474 379V0H777v-155h-10C713-51 605 22 440 22zm85-211c140 0 238-93 238-211v-121c-37 26-156 42-222 51-111 16-185 59-185 149 0 87 70 132 169 132" id="aK"/><path fill="#a9afb8" d="M625 442c-280 0-454-114-503-274l258-72c28 63 97 128 243 128 153 0 246-69 246-216v-206h-23C805-108 717-16 536-16 284-16 81-191 81-561c0-378 208-571 456-571 188 0 280 113 321 202h13v-188h295V-9c0 303-226 451-541 451zm5-686c153 0 240-119 240-319 0-198-86-329-240-329-158 0-241 137-241 329 0 195 85 319 241 319" id="aL"/><path fill="#a9afb8" d="M128 0v-1118h290v195h12c54-169 184-238 367-200v268c-27-8-86-15-130-15-138 0-239 95-239 234V0H128" id="aM"/><path fill="#a9afb8" d="M128 0v-1118h278l12 217c60-163 185-234 319-234 143 0 236 81 288 251 63-172 205-251 359-251 205 0 357 138 357 381V0h-301v-697c0-126-76-187-177-187-114 0-184 79-184 196V0H789v-705c0-109-72-179-174-179-106 0-187 74-187 208V0H128" id="aN"/><g id="B"><use transform="matrix(0.011907552083333333,0,0,0.011907552083333333,0,0)" xlink:href="#aI"/><use transform="matrix(0.011907552083333333,0,0,0.011907552083333333,17.61126953125,0)" xlink:href="#aJ"/><use transform="matrix(0.011907552083333333,0,0,0.011907552083333333,24.219960937499998,0)" xlink:href="#aK"/><use transform="matrix(0.011907552083333333,0,0,0.011907552083333333,38.37804036458333,0)" xlink:href="#aL"/><use transform="matrix(0.011907552083333333,0,0,0.011907552083333333,53.78641276041665,0)" xlink:href="#aM"/><use transform="matrix(0.011907552083333333,0,0,0.011907552083333333,63.38389973958332,0)" xlink:href="#aK"/><use transform="matrix(0.011907552083333333,0,0,0.011907552083333333,77.54197916666666,0)" xlink:href="#aN"/><use transform="matrix(0.011907552083333333,0,0,0.011907552083333333,99.79719401041666,0)" xlink:href="#aK"/></g><path fill="#a9afb8" d="M135 0v-1490h997v253H440v360h640v249H440v375h694V0H135" id="aO"/><path fill="#a9afb8" d="M135 0v-1490h581c339 0 533 192 533 485 0 204-94 351-264 424L1302 0H964L680-532H440V0H135zm305-779h220c186 0 274-77 274-226 0-150-88-233-275-233H440v459" id="aP"/><g id="C"><use transform="matrix(0.011907552083333333,0,0,0.011907552083333333,0,0)" xlink:href="#aO"/><use transform="matrix(0.011907552083333333,0,0,0.011907552083333333,14.812994791666666,0)" xlink:href="#aP"/></g><path fill="#a9afb8" d="M537 19C279 19 81-185 81-557c0-382 206-575 454-575 190 0 278 113 318 202h10v-560h300V0H868v-179h-15C812-89 719 19 537 19zm92-241c153 0 240-134 240-336 0-203-86-334-240-334-158 0-240 138-240 334 0 197 84 336 240 336" id="aQ"/><path fill="#a9afb8" d="M633 22C291 22 81-200 81-553c0-345 210-579 537-579 292 0 525 185 525 567v84H378c7 183 109 277 260 277 105 0 184-46 216-132l272 51C1071-99 893 22 633 22zM380-669h474c-15-146-94-237-233-237-143 0-229 99-241 237" id="aR"/><g id="D"><use transform="matrix(0.011907552083333333,0,0,0.011907552083333333,0,0)" xlink:href="#aQ"/><use transform="matrix(0.011907552083333333,0,0,0.011907552083333333,15.372649739583334,0)" xlink:href="#aR"/></g><path fill="#a9afb8" d="M754 19C571 19 479-89 437-179h-14V0H128v-1490h300v560h9c41-89 129-202 319-202 248 0 453 193 453 575 0 372-197 576-455 576zm-92-241c156 0 240-139 240-336 0-196-83-334-240-334-154 0-241 131-241 334 0 202 88 336 241 336" id="aS"/><path fill="#a9afb8" d="M572 22C302 22 117-98 78-306l279-48c29 105 101 156 224 156 114 0 185-48 185-115 0-118-228-130-337-155-215-49-322-150-322-317 0-215 187-347 470-347 265 0 424 116 466 298l-266 47c-24-76-87-130-196-130-98 0-174 46-174 113 0 56 38 95 144 117l201 40c216 44 320 143 320 302 0 220-207 367-500 367" id="aT"/><g id="E"><use transform="matrix(0.011907552083333333,0,0,0.011907552083333333,0,0)" xlink:href="#aS"/><use transform="matrix(0.011907552083333333,0,0,0.011907552083333333,15.61080078125,0)" xlink:href="#aK"/><use transform="matrix(0.011907552083333333,0,0,0.011907552083333333,29.768880208333332,0)" xlink:href="#aT"/><use transform="matrix(0.011907552083333333,0,0,0.011907552083333333,43.42684244791667,0)" xlink:href="#aR"/></g><path fill="#a9afb8" d="M683-1118v229H474v562c0 71 29 104 102 104 23 0 73-7 95-13l43 225C647 9 580 16 520 16 296 16 174-96 174-301v-588H20v-229h154v-266h300v266h209" id="aU"/><path fill="#a9afb8" d="M628 22C291 22 81-210 81-554c0-346 210-578 547-578 336 0 547 232 547 578 0 344-211 576-547 576zm0-236c160 0 242-146 242-341 0-197-82-341-242-341S387-753 387-555c0 195 81 341 241 341" id="aV"/><g id="F"><use transform="matrix(0.011907552083333333,0,0,0.011907552083333333,0,0)" xlink:href="#aQ"/><use transform="matrix(0.011907552083333333,0,0,0.011907552083333333,15.372649739583334,0)" xlink:href="#aK"/><use transform="matrix(0.011907552083333333,0,0,0.011907552083333333,29.530729166666667,0)" xlink:href="#aU"/><use transform="matrix(0.011907552083333333,0,0,0.011907552083333333,38.223242187500006,0)" xlink:href="#aV"/><use transform="matrix(0.011907552083333333,0,0,0.011907552083333333,53.17912760416668,0)" xlink:href="#aT"/></g><path fill="#a9afb8" d="M169-607c0-330 107-732 258-974h279c-145 311-231 674-231 974 0 262 67 512 231 886H427C258-1 169-307 169-607" id="aW"/><path fill="#a9afb8" d="M135 0v-1490h468l242 684c30 94 76 293 111 455 34-161 80-360 110-455l238-684h470V0h-307c0-447-3-765 11-1227-122 503-246 788-395 1227H826C676-435 552-717 427-1215c15 453 11 775 11 1215H135" id="aX"/><path fill="#a9afb8" d="M101-265v-241l623-984h383v979h186v246h-186V0H814v-265H101zm719-246v-643h-12L409-523v12h411" id="aY"/><path fill="#a9afb8" d="M67 279c166-379 230-627 230-886 0-300-86-663-230-974h278c151 241 258 644 258 974 0 302-90 608-258 886H67" id="aZ"/><g id="G"><use transform="matrix(0.011907552083333333,0,0,0.011907552083333333,0,0)" xlink:href="#aW"/><use transform="matrix(0.011907552083333333,0,0,0.011907552083333333,9.633209635416668,0)" xlink:href="#aX"/><use transform="matrix(0.011907552083333333,0,0,0.011907552083333333,32.35281901041667,0)" xlink:href="#aY"/><use transform="matrix(0.011907552083333333,0,0,0.011907552083333333,48.84477864583334,0)" xlink:href="#aZ"/></g><path fill="#a9afb8" d="M180 0v-1490h901v168H370v510h643v168H370V0H180" id="ba"/><path fill="#a9afb8" d="M158 0v-1118h174v172h12c41-113 157-188 290-188 26 0 70 2 91 3v181c-11-2-60-10-108-10-161 0-279 109-279 260V0H158" id="bb"/><path fill="#a9afb8" d="M471 26C259 26 90-98 90-318c0-256 228-303 435-329 202-27 287-16 287-108 0-139-79-219-234-219-161 0-248 86-283 164l-173-57c86-203 278-265 451-265 150 0 419 46 419 395V0H815v-152h-12C765-73 660 26 471 26zm31-159c199 0 310-134 310-271v-155c-30 35-226 55-295 64-131 17-246 59-246 186 0 116 97 176 231 176" id="bc"/><path fill="#a9afb8" d="M338-670V0H158v-1118h173l1 207c72-158 192-221 342-221 226 0 378 139 378 422V0H872v-695c0-172-96-275-252-275-161 0-282 109-282 300" id="bd"/><path fill="#a9afb8" d="M613 24c-304 0-509-231-509-576 0-350 205-580 509-580 216 0 392 114 453 309l-173 49c-33-115-133-197-280-197-223 0-326 196-326 419 0 220 103 415 326 415 150 0 252-85 285-206l172 49C1010-95 832 24 613 24" id="be"/><path fill="#a9afb8" d="M613 24c-304 0-509-231-509-576 0-350 205-580 509-580 305 0 511 230 511 580 0 345-206 576-511 576zm0-161c226 0 329-195 329-415 0-222-103-419-329-419-223 0-326 196-326 419 0 220 103 415 326 415" id="bf"/><g id="H"><use transform="matrix(0.006946072048611111,0,0,0.006946072048611111,0,0)" xlink:href="#ba"/><use transform="matrix(0.006946072048611111,0,0,0.006946072048611111,7.981036783854167,0)" xlink:href="#bb"/><use transform="matrix(0.006946072048611111,0,0,0.006946072048611111,13.336458333333333,0)" xlink:href="#bc"/><use transform="matrix(0.006946072048611111,0,0,0.006946072048611111,21.32444118923611,0)" xlink:href="#bd"/><use transform="matrix(0.006946072048611111,0,0,0.006946072048611111,29.729188368055556,0)" xlink:href="#be"/><use transform="matrix(0.006946072048611111,0,0,0.006946072048611111,37.85609266493056,0)" xlink:href="#bf"/></g><path fill="#a9afb8" d="M789 20c-398 0-667-293-667-764 0-473 273-766 655-766 315 0 558 198 612 487h-196c-61-191-204-311-415-311-262 0-471 207-471 590 0 380 208 588 482 588 249 0 420-165 425-427H828v-166h572v163c0 370-256 606-611 606" id="bg"/><path fill="#a9afb8" d="M537 14c-226 0-379-139-379-422v-710h180v695c0 172 97 275 253 275 160 0 281-109 281-300v-670h181V0H879v-209C806-46 684 14 537 14" id="bh"/><g id="I"><use transform="matrix(0.006946072048611111,0,0,0.006946072048611111,0,0)" xlink:href="#bg"/><use transform="matrix(0.006946072048611111,0,0,0.006946072048611111,10.613598090277778,0)" xlink:href="#bc"/><use transform="matrix(0.006946072048611111,0,0,0.006946072048611111,18.601580946180555,0)" xlink:href="#bh"/><use transform="matrix(0.006946072048611111,0,0,0.006946072048611111,27.01327419704861,0)" xlink:href="#bd"/><use transform="matrix(0.006946072048611111,0,0,0.006946072048611111,35.41802137586805,0)" xlink:href="#bc"/></g><path fill="#a9afb8" d="M419-1970V480H262v-2450h157" id="bi"/><use transform="matrix(0.006946072048611111,0,0,0.006946072048611111,0,0)" xlink:href="#bi" id="J"/><path fill="#a9afb8" d="M545 20c-263 0-445-160-445-446v-80h190v80c0 182 102 279 255 279 152 0 254-97 254-279v-1064h190v1064c0 286-181 446-444 446" id="bj"/><path fill="#a9afb8" d="M338-1490V0H158v-1490h180" id="bk"/><path fill="#a9afb8" d="M140 405l46-156c120 36 205 19 263-150l32-93L54-1118h197c107 313 237 620 324 950 87-331 219-637 326-950h196L606 167c-68 178-176 259-334 259-64 0-113-12-132-21" id="bl"/><g id="K"><use transform="matrix(0.006946072048611111,0,0,0.006946072048611111,0,0)" xlink:href="#bj"/><use transform="matrix(0.006946072048611111,0,0,0.006946072048611111,8.119958224826389,0)" xlink:href="#bh"/><use transform="matrix(0.006946072048611111,0,0,0.006946072048611111,16.531651475694446,0)" xlink:href="#bk"/><use transform="matrix(0.006946072048611111,0,0,0.006946072048611111,20.04636393229167,0)" xlink:href="#bl"/></g><path fill="#a9afb8" d="M635 20c-292 0-500-160-510-396h192c11 142 145 229 315 229 187 0 323-105 323-260 0-161-125-274-346-274H488v-165h121c174 0 294-100 294-254 0-148-104-245-266-245-152 0-291 85-297 230H157c8-234 222-395 484-395 278 0 448 188 448 400 0 168-95 291-247 336v12c190 31 301 169 301 357 0 244-216 425-508 425" id="bm"/><path fill="#a9afb8" d="M128 359l88-567h206L266 359H128" id="bn"/><g id="L"><use transform="matrix(0.006946072048611111,0,0,0.006946072048611111,0,0)" xlink:href="#bm"/><use transform="matrix(0.006946072048611111,0,0,0.006946072048611111,8.467261827256944,0)" xlink:href="#bn"/></g><path fill="#a9afb8" d="M154 0v-137l495-537c165-179 249-281 249-418 0-156-121-253-280-253-170 0-278 110-278 278H158c0-264 200-443 465-443 266 0 455 183 455 416 0 161-73 288-336 568L416-179v12h687V0H154" id="bo"/><path fill="#a9afb8" d="M646 20c-332 0-524-278-524-764 0-483 194-766 524-766s524 283 524 766c0 485-191 764-524 764zm0-166c218 0 341-220 341-598 0-380-123-601-341-601s-341 222-341 601c0 378 123 598 341 598" id="bp"/><path fill="#a9afb8" d="M626 20c-262 0-458-168-468-396h184c12 133 134 229 284 229 180 0 311-137 311-326 0-192-136-335-323-335-92 0-196 33-255 78l-178-22 88-738h784v167H429l-51 435h8c61-51 160-87 263-87 273 0 474 211 474 499 0 286-210 496-497 496" id="bq"/><g id="M"><use transform="matrix(0.006946072048611111,0,0,0.006946072048611111,0,0)" xlink:href="#bo"/><use transform="matrix(0.006946072048611111,0,0,0.006946072048611111,8.675643988715278,0)" xlink:href="#bp"/><use transform="matrix(0.006946072048611111,0,0,0.006946072048611111,17.649969075520833,0)" xlink:href="#bo"/><use transform="matrix(0.006946072048611111,0,0,0.006946072048611111,26.32561306423611,0)" xlink:href="#bq"/></g><path fill="#333" d="M-4 418l255-1536h174l-30 179h9c47-68 143-193 355-193 246 0 401 170 401 447 0 348-211 709-568 709-219 0-274-140-300-202h-17l-99 596H-4zm572-555c267 0 411-296 411-543 0-170-78-291-250-291-269 0-405 284-405 542 0 177 81 292 244 292" id="br"/><g id="N"><use transform="matrix(0.008173828125000001,0,0,0.008173828125000001,0,0)" xlink:href="#aa"/><use transform="matrix(0.008173828125000001,0,0,0.008173828125000001,12.072744140625002,0)" xlink:href="#V"/><use transform="matrix(0.008173828125000001,0,0,0.008173828125000001,21.7096875,0)" xlink:href="#U"/><use transform="matrix(0.008173828125000001,0,0,0.008173828125000001,30.537421875,0)" xlink:href="#aj"/><use transform="matrix(0.008173828125000001,0,0,0.008173828125000001,40.108974609375,0)" xlink:href="#W"/><use transform="matrix(0.008173828125000001,0,0,0.008173828125000001,46.68073242187499,0)" xlink:href="#aq"/><use transform="matrix(0.008173828125000001,0,0,0.008173828125000001,50.74312499999999,0)" xlink:href="#br"/><use transform="matrix(0.008173828125000001,0,0,0.008173828125000001,61.00127929687499,0)" xlink:href="#ac"/><use transform="matrix(0.008173828125000001,0,0,0.008173828125000001,66.494091796875,0)" xlink:href="#aq"/><use transform="matrix(0.008173828125000001,0,0,0.008173828125000001,70.556484375,0)" xlink:href="#ay"/><use transform="matrix(0.008173828125000001,0,0,0.008173828125000001,80.60211914062499,0)" xlink:href="#ab"/></g><g id="O"><use transform="matrix(0.008173828125000001,0,0,0.008173828125000001,0,0)" xlink:href="#aw"/><use transform="matrix(0.008173828125000001,0,0,0.008173828125000001,10.691367187500001,0)" xlink:href="#W"/><use transform="matrix(0.008173828125000001,0,0,0.008173828125000001,17.263125000000002,0)" xlink:href="#aq"/><use transform="matrix(0.008173828125000001,0,0,0.008173828125000001,21.325517578125,0)" xlink:href="#aj"/><use transform="matrix(0.008173828125000001,0,0,0.008173828125000001,30.897070312500002,0)" xlink:href="#V"/></g><path fill="#333" d="M65 0l247-1490h180L349-625h22l559-493h223L606-638 1003 0H772L449-523 313-412 245 0H65" id="bs"/><g id="P"><use transform="matrix(0.008173828125000001,0,0,0.008173828125000001,0,0)" xlink:href="#as"/><use transform="matrix(0.008173828125000001,0,0,0.008173828125000001,10.7240625,0)" xlink:href="#ac"/><use transform="matrix(0.008173828125000001,0,0,0.008173828125000001,16.0533984375,0)" xlink:href="#ay"/><use transform="matrix(0.008173828125000001,0,0,0.008173828125000001,26.099033203125003,0)" xlink:href="#aj"/><use transform="matrix(0.008173828125000001,0,0,0.008173828125000001,35.67058593750001,0)" xlink:href="#bs"/></g><g id="Q"><use transform="matrix(0.008173828125000001,0,0,0.008173828125000001,0,0)" xlink:href="#Z"/><use transform="matrix(0.008173828125000001,0,0,0.008173828125000001,4.495605468750001,0)" xlink:href="#ah"/><use transform="matrix(0.008173828125000001,0,0,0.008173828125000001,19.159453125000002,0)" xlink:href="#ag"/><use transform="matrix(0.008173828125000001,0,0,0.008173828125000001,29.433955078125003,0)" xlink:href="#ad"/><use transform="matrix(0.008173828125000001,0,0,0.008173828125000001,39.700283203125004,0)" xlink:href="#V"/></g><path fill="#333" d="M-19 405l72-156c121 32 203 15 288-150l47-93-241-1124h188c55 313 135 616 167 950 142-329 324-636 483-950h205L486 167c-97 177-219 259-378 259-59 0-109-11-127-21" id="bt"/><g id="R"><use transform="matrix(0.008173828125000001,0,0,0.008173828125000001,0,0)" xlink:href="#aF"/><use transform="matrix(0.008173828125000001,0,0,0.008173828125000001,12.219873046875001,0)" xlink:href="#ag"/><use transform="matrix(0.008173828125000001,0,0,0.008173828125000001,22.494375000000005,0)" xlink:href="#ac"/><use transform="matrix(0.008173828125000001,0,0,0.008173828125000001,27.823710937500003,0)" xlink:href="#V"/><use transform="matrix(0.008173828125000001,0,0,0.008173828125000001,37.460654296875006,0)" xlink:href="#ad"/><use transform="matrix(0.008173828125000001,0,0,0.008173828125000001,47.72698242187501,0)" xlink:href="#ay"/><use transform="matrix(0.008173828125000001,0,0,0.008173828125000001,57.7726171875,0)" xlink:href="#W"/><use transform="matrix(0.008173828125000001,0,0,0.008173828125000001,64.34437500000001,0)" xlink:href="#bt"/><use transform="matrix(0.008173828125000001,0,0,0.008173828125000001,72.428291015625,0)" xlink:href="#aC"/><use transform="matrix(0.008173828125000001,0,0,0.008173828125000001,80.62664062500001,0)" xlink:href="#Z"/><use transform="matrix(0.008173828125000001,0,0,0.008173828125000001,85.12224609375001,0)" xlink:href="#aa"/></g><g id="S"><use transform="matrix(0.008173828125000001,0,0,0.008173828125000001,0,0)" xlink:href="#aF"/><use transform="matrix(0.008173828125000001,0,0,0.008173828125000001,12.219873046875001,0)" xlink:href="#ag"/><use transform="matrix(0.008173828125000001,0,0,0.008173828125000001,22.494375000000005,0)" xlink:href="#ac"/><use transform="matrix(0.008173828125000001,0,0,0.008173828125000001,27.823710937500003,0)" xlink:href="#V"/><use transform="matrix(0.008173828125000001,0,0,0.008173828125000001,37.460654296875006,0)" xlink:href="#ad"/><use transform="matrix(0.008173828125000001,0,0,0.008173828125000001,47.72698242187501,0)" xlink:href="#ay"/><use transform="matrix(0.008173828125000001,0,0,0.008173828125000001,57.7726171875,0)" xlink:href="#W"/><use transform="matrix(0.008173828125000001,0,0,0.008173828125000001,64.34437500000001,0)" xlink:href="#bt"/></g></defs></g></svg>